<svg xmlns="http://www.w3.org/2000/svg" data-name="Layer 1" viewBox="0 0 650 512" id="Comebacklater"><circle cx="342.637" cy="197.755" r="173.618" fill="#dbe7ec" class="colordbe8ec svgShape"></circle><path fill="#dbe7ec" d="M596.76,244.94168l0-20.16588a14.49927,14.49927,0,0,0-14.49926-14.49927l-51.17749,0A14.49928,14.49928,0,0,1,516.584,195.77724l0-20.16587a14.49926,14.49926,0,0,1,14.49927-14.49926h1.61587a14.49926,14.49926,0,0,0,14.49927-14.49926l0-20.16587a14.49928,14.49928,0,0,0-14.49926-14.49928l-406.621-.00015a14.49927,14.49927,0,0,0-14.49927,14.49927l0,20.16587A14.49927,14.49927,0,0,0,126.07814,161.112h0a14.49927,14.49927,0,0,1,14.49926,14.49927l0,20.16587a14.49927,14.49927,0,0,1-14.49927,14.49927l-56.07,0a14.49928,14.49928,0,0,0-14.49928,14.49926v20.16587a14.49925,14.49925,0,0,0,14.49926,14.49927l22.001,0A14.49927,14.49927,0,0,1,106.50843,273.94l0,20.166a14.49926,14.49926,0,0,1-14.49927,14.49926H91.956a14.49926,14.49926,0,0,0-14.49927,14.49927l0,20.16577A14.49926,14.49926,0,0,0,91.956,357.76957l3.18309,0a14.49926,14.49926,0,0,1,14.49926,14.49927l0,20.166A14.49927,14.49927,0,0,1,95.139,406.93408l-32.24,0a14.49928,14.49928,0,0,0-14.49928,14.49926v20.16587A14.49928,14.49928,0,0,0,62.899,456.09847l477.58427.00018a14.49928,14.49928,0,0,0,14.49928-14.49927V421.43351a14.49926,14.49926,0,0,0-14.49926-14.49927l-12.57158,0A14.49926,14.49926,0,0,1,513.41244,392.435l0-20.166a14.49927,14.49927,0,0,1,14.49927-14.49927l29.64255,0a14.49927,14.49927,0,0,0,14.49928-14.49926V323.1047a14.49926,14.49926,0,0,0-14.49926-14.49927h-8.99217a14.49927,14.49927,0,0,1-14.49926-14.49927l0-20.166a14.49926,14.49926,0,0,1,14.49927-14.49926l33.69855,0A14.49927,14.49927,0,0,0,596.76,244.94168Z" class="colordbe8ec svgShape"></path><path fill="none" stroke="#1db5ee" stroke-miterlimit="10" stroke-width="5" d="M290.54333,105.94287h142.56a0,0,0,0,1,0,0v60.4a12,12,0,0,1-12,12h-118.56a12,12,0,0,1-12-12v-60.4A0,0,0,0,1,290.54333,105.94287Z" transform="rotate(-180 361.823 142.143)" class="colorStrokeee781d svgStroke"></path><rect width="211.68" height="307.8" x="255.983" y="165.103" fill="#2bc1f9" rx="24.78" transform="rotate(-180 361.823 319.003)" class="colorf9ae2b svgShape"></rect><path fill="#18b1ea" d="M458.30334,457.12271V198.883a24.78035,24.78035,0,0,0-24.78-24.78027H271.4032a24.66377,24.66377,0,0,0-11.89429,3.03857,24.76485,24.76485,0,0,1,21.25439-12.03857H442.88318A24.7804,24.7804,0,0,1,467.66345,189.883V448.12271a24.77265,24.77265,0,0,1-12.8855,21.7417A24.66278,24.66278,0,0,0,458.30334,457.12271Z" class="colorea9918 svgShape"></path><path fill="#18b1ea" d="M430.05719,416.77921V249.29184A16.07187,16.07187,0,0,0,413.98553,233.22H308.83877a15.99618,15.99618,0,0,0-7.71431,1.97074,16.06179,16.06179,0,0,1,13.785-7.80789H420.05608a16.0719,16.0719,0,0,1,16.07182,16.07182V410.94205a16.06689,16.06689,0,0,1-8.35718,14.10109A15.99567,15.99567,0,0,0,430.05719,416.77921Z" class="colorea9918 svgShape"></path><rect width="68.64" height="21.12" x="327.503" y="262.903" fill="#1db5ee" rx="2" transform="rotate(-180 361.823 273.463)" class="coloree781d svgShape"></rect><path fill="#14a9e0" d="M329.50329,262.903H334.306v13.71973a2.0001,2.0001,0,0,0,2,2h59.8374v3.40039a2.0001,2.0001,0,0,1-2,2H329.50329a2.0001,2.0001,0,0,1-2-2V264.903A2.0001,2.0001,0,0,1,329.50329,262.903Z" class="colore06714 svgShape"></path><path fill="#1db5ee" d="M429.75467,472.77855h14.90866a3,3,0,0,1,3,3v12.08431a0,0,0,0,1,0,0H426.75467a0,0,0,0,1,0,0V475.77855A3,3,0,0,1,429.75467,472.77855Z" transform="rotate(-180 437.209 480.32)" class="coloree781d svgShape"></path><path fill="#1db5ee" d="M278.98333,472.77855H293.892a3,3,0,0,1,3,3v12.08431a0,0,0,0,1,0,0H275.98333a0,0,0,0,1,0,0V475.77855A3,3,0,0,1,278.98333,472.77855Z" transform="rotate(-180 286.438 480.32)" class="coloree781d svgShape"></path><rect width="65.52" height="16.8" x="329.063" y="97.783" fill="#1db5ee" rx="8.4" transform="rotate(180 361.823 106.183)" class="coloree781d svgShape"></rect><circle cx="493.508" cy="216.185" r="64.081" fill="#4095b5" class="color409cb5 svgShape"></circle><path fill="#3084a3" d="M485.63032 167.77506c-.7157 2.18573-1.99544 6.07569-5.53316 8.17324-3.14534 1.86193-5.66291.8713-10.80219 2.60143-3.10724 1.04678-5.06072 1.70121-6.82422 3.49819-2.56052 2.61057-1.91776 4.73635-3.64326 7.47779-3.7221 5.91708-13.03306 6.10022-13.54865 6.10124a19.63172 19.63172 0 01-11.12338-3.60984 63.99681 63.99681 0 0145.9507-38.49661c1.56657-.335 3.13989-.61082 4.701-.82939C486.24 156.38321 487.5385 161.9729 485.63032 167.77506zM471.59523 196.115c3.218-6.34385 6.53014-12.8735 12.27852-13.402 4.5324-.41666 9.56082 2.99113 11.43483 7.16557 2.34052 5.21364-1.564 8.67281 1.12846 13.44717 1.83081 3.24654 3.98417 2.264 8.41148 6.64719 2.09143 2.07064 5.62324 5.56708 6.40071 10.86343.17779 1.21157 1.12282 8.72454-4.461 13.18636a12.78018 12.78018 0 01-12.71155 1.84477c-4.38313-1.97464-3.91821-5.7493-7.85448-6.76627-3.5888-.92715-4.94526 1.9599-10.64283 1.98481-2.10021.0092-5.97668.02616-8.35353-2.29089-3.26509-3.183-2.03125-9.14392-.13185-18.32023C468.16384 205.30588 469.01239 201.20691 471.59523 196.115zM556.17173 202.78294a64.3958 64.3958 0 011.37685 16.11236c-5.4712 2.58989-12.30956 3.80965-18.431 1.51468-1.8071-.67536-6.42457-2.40612-8.41149-6.64722-1.49726-3.19895-.05371-4.73334-1.1494-10.82149a22.95 22.95 0 00-3.53672-9.72842c-2.797-3.97074-5.08093-3.58543-7.23794-6.60693-3.22185-4.5109-2.37619-11.28116-.65036-15.29689 1.84007-4.27681 5.479-7.26362 9.74152-9.20672A63.85089 63.85089 0 01556.17173 202.78294zM520.46869 246.24168c-1.82166-1.93413-2.24116-5.7374-.71314-7.41984 1.4026-1.54437 3.64374-.418 5.61043-2.36488 1.44186-1.42729.81818-2.60772 2.12991-3.65922 1.80984-1.45074 5.37772-1.11181 7.43917.739 2.65453 2.38322 2.28035 6.79618.85144 9.429C532.88832 248.30582 523.78407 249.76167 520.46869 246.24168zM507.98484 278.60027q-.536.13284-1.07555.24824a63.99964 63.99964 0 01-56.99346-15.69177 19.336 19.336 0 012.47979-7.01657c.39264-.66044 5.35177-8.68061 13.29107-8.66744a15.24912 15.24912 0 017.79653 2.41c2.98211 1.97133 2.70093 3.49371 5.09034 4.73632 3.13356 1.62941 5.13877-.201 11.00017-.31391 3.31115-.06493 7.97077-.15132 11.59583 2.47133 3.71778 2.6877 4.67252 7.00993 5.62477 11.32054A40.24889 40.24889 0 01507.98484 278.60027z" class="color3086a3 svgShape"></path><path fill="#1db5ee" d="M550.94461,187.89654a188.05474,188.05474,0,0,1,20.927-2.167c3.51538-.1582,7.04443-.22607,10.5896-.07324a63.61413,63.61413,0,0,1,10.69531,1.17187,25.79548,25.79548,0,0,1,5.40528,1.69092,11.68667,11.68667,0,0,1,2.68652,1.63281,6.6904,6.6904,0,0,1,2.17383,3.01661,6.11,6.11,0,0,1-.03613,3.91162,10.40112,10.40112,0,0,1-1.57569,2.91015,23.6639,23.6639,0,0,1-4.10449,4.0708,59.40833,59.40833,0,0,1-9.15234,5.81495c-3.13672,1.70214-6.38233,3.13085-9.62891,4.51855-6.52393,2.71-13.1875,4.96728-19.89111,7.03418-6.707,2.05859-13.43653,3.98779-20.17456,5.86719-6.73072,1.90527-13.47852,3.73486-20.23438,5.54443-6.76489,1.77148-13.51489,3.62793-20.32373,5.25879-6.79956,1.66894-13.62036,3.28564-20.49365,4.66113-6.87012,1.39307-13.78345,2.57959-20.72315,3.62305a293.04342,293.04342,0,0,1-42.04126,3.69043c-3.54223-.02393-7.093-.13233-10.65966-.42041a62.39363,62.39363,0,0,1-10.75342-1.65918,24.31621,24.31621,0,0,1-5.43335-2.03809,10.95457,10.95457,0,0,1-2.66528-1.96728,6.34123,6.34123,0,0,1-1.80054-3.5083,6.65149,6.65149,0,0,1,.61987-3.77539,11.29994,11.29994,0,0,1,1.77246-2.65918,25.42688,25.42688,0,0,1,4.2522-3.78662,64.18719,64.18719,0,0,1,9.29907-5.4292c3.17676-1.582,6.42627-2.95752,9.698-4.25244,3.26611-1.30762,6.5835-2.4629,9.91113-3.56641,3.32666-1.106,6.67139-2.14453,10.04566-3.07959l.16406.47266c-3.22192,1.35693-6.44019,2.70654-9.62891,4.1123-3.1875,1.40869-6.33862,2.88916-9.46093,4.40088-6.19092,3.07519-12.39722,6.33252-17.63526,10.46875a21.5104,21.5104,0,0,0-3.40014,3.33252,4.24664,4.24664,0,0,0-1.23389,3.05127,1.88065,1.88065,0,0,0,.64038,1.01806,6.56636,6.56636,0,0,0,1.5874,1.04981,19.86738,19.86738,0,0,0,4.41577,1.44824,95.51767,95.51767,0,0,0,20.24195,1.45459c6.885-.04053,13.79663-.45459,20.70727-.96435,6.91162-.52051,13.82007-1.23633,20.71826-2.07569,6.89771-.84717,13.78052-1.84765,20.66162-2.8916,6.87793-1.063,13.76368-2.13525,20.62134-3.38672,6.84717-1.293,13.70313-2.59521,20.48267-4.22851q10.1825-2.39356,20.19092-5.45313a299.3687,299.3687,0,0,0,38.83325-15.14941c6.20508-2.96192,12.44971-6.06348,17.73535-10.01172a19.56021,19.56021,0,0,0,3.3855-3.21192,6.25415,6.25415,0,0,0,.95849-1.646,1.82836,1.82836,0,0,0,.074-1.2251,4.78282,4.78282,0,0,0-2.5813-2.30713,21.97968,21.97968,0,0,0-4.52075-1.58545c-6.49854-1.56445-13.48706-1.95215-20.39453-2.21338-6.93677-.21-13.91016-.1123-20.90284.00391Z" class="coloree781d svgShape"></path><rect width="240.48" height="178.08" x="88.583" y="309.783" fill="none" stroke="#dbe7ec" stroke-miterlimit="10" rx="10" class="colorStrokedbe8ec svgStroke"></rect><rect width="240.48" height="178.08" x="88.583" y="309.783" fill="#1db5ee" rx="10" class="coloree781d svgShape"></rect><path fill="#4095b5" d="M115.46347 313.14294a26.87417 26.87417 0 01-26.88013 26.87989V319.78259a10.00394 10.00394 0 0110-10h16.65992A24.82569 24.82569 0 01115.46347 313.14294zM329.06332 319.78259v20.24024a26.87417 26.87417 0 01-26.88012-26.87989 24.82569 24.82569 0 01.22021-3.36035h16.65991A10.00394 10.00394 0 01329.06332 319.78259zM115.46347 484.79285a25.9253 25.9253 0 01-.18018 3.06982H98.58334a10.00362 10.00362 0 01-10-10V457.913A26.87417 26.87417 0 01115.46347 484.79285zM329.06332 457.913v19.94971a10.00362 10.00362 0 01-10 10H302.36337a25.92742 25.92742 0 01-.18017-3.06982A26.87417 26.87417 0 01329.06332 457.913z" class="color409cb5 svgShape"></path><rect width="19.68" height="178.08" x="142.343" y="309.783" fill="#4095b5" class="color409cb5 svgShape"></rect><rect width="19.68" height="178.08" x="256.103" y="309.783" fill="#4095b5" class="color409cb5 svgShape"></rect><path fill="#4095b5" d="M244.15048,309.78259a9.99594,9.99594,0,0,0,.09278-1.29v-14.46a10.02094,10.02094,0,0,0-10.00977-10.00976H183.41318a10.02094,10.02094,0,0,0-10.00977,10.00976v14.46a9.99594,9.99594,0,0,0,.09277,1.29Zm-60.7373-15.75976,50.83008.00976-.00245,14.4707-50.8374-.01074Z" class="color409cb5 svgShape"></path><circle cx="275.121" cy="114.583" r="40.712" fill="#2bc1f9" class="colorf9ae2b svgShape"></circle><path fill="#4095b5" d="M283.481,136.55444a3.14387,3.14387,0,0,1-2.22277-.9228,3.28823,3.28823,0,0,1-.694-3.6546l1.85846-4.26254-9.31222-8.65495a.51872.51872,0,0,0-.44316-.14276.48508.48508,0,0,0-.35705.19406l-8.33264,15.3984a3.30532,3.30532,0,0,1-5.14869.60056,2.9135,2.9135,0,0,1-.78-2.7318l5.00581-22.02832a.54925.54925,0,0,0-.16478-.53647l-8.31806-7.84015a5.39723,5.39723,0,0,1-1.42267-3.8542,5.75873,5.75873,0,0,1,1.39523-4.11235,5.98942,5.98942,0,0,1,4.105-1.39523,5.43185,5.43185,0,0,1,3.86146,1.43l7.81092,8.2961a.55948.55948,0,0,0,.5291.15746l21.772-4.61216a2.89749,2.89749,0,0,1,2.68783.7873,3.29583,3.29583,0,0,1-.69393,5.19808l-14.89668,7.8896a.54333.54333,0,0,0-.26547.401.53211.53211,0,0,0,.14276.45042l8.66232,9.32692,4.25517-1.86019a3.266,3.266,0,0,1,3.6546.69393,3.14874,3.14874,0,0,1-.36443,4.76962l-5.621,4.14163a1.37815,1.37815,0,0,0-.32229.32956l-3.834,5.24943a3.15269,3.15269,0,0,1-2.30329,1.28712c-.07878.00737-.16478.00737-.24356.00737ZM255.50207,100.9788h0Zm.01464,0" class="color409cb5 svgShape"></path><line x1="501.094" x2="531.415" y1="124.749" y2="124.749" fill="none" stroke="#b9d2db" stroke-linecap="round" stroke-miterlimit="10" stroke-width="3" class="colorStrokeb9d4db svgStroke"></line><line x1="501.094" x2="531.415" y1="133.488" y2="133.488" fill="none" stroke="#b9d2db" stroke-linecap="round" stroke-miterlimit="10" stroke-width="3" class="colorStrokeb9d4db svgStroke"></line><line x1="501.094" x2="531.415" y1="142.227" y2="142.227" fill="none" stroke="#b9d2db" stroke-linecap="round" stroke-miterlimit="10" stroke-width="3" class="colorStrokeb9d4db svgStroke"></line><line x1="476.625" x2="506.945" y1="341.941" y2="341.941" fill="none" stroke="#b9d2db" stroke-linecap="round" stroke-miterlimit="10" stroke-width="3" class="colorStrokeb9d4db svgStroke"></line><line x1="476.625" x2="506.945" y1="350.681" y2="350.681" fill="none" stroke="#b9d2db" stroke-linecap="round" stroke-miterlimit="10" stroke-width="3" class="colorStrokeb9d4db svgStroke"></line><line x1="476.625" x2="506.945" y1="359.42" y2="359.42" fill="none" stroke="#b9d2db" stroke-linecap="round" stroke-miterlimit="10" stroke-width="3" class="colorStrokeb9d4db svgStroke"></line><line x1="73.423" x2="103.744" y1="228.069" y2="228.069" fill="none" stroke="#b9d2db" stroke-linecap="round" stroke-miterlimit="10" stroke-width="3" class="colorStrokeb9d4db svgStroke"></line><line x1="73.423" x2="103.744" y1="236.809" y2="236.809" fill="none" stroke="#b9d2db" stroke-linecap="round" stroke-miterlimit="10" stroke-width="3" class="colorStrokeb9d4db svgStroke"></line><line x1="73.423" x2="103.744" y1="245.548" y2="245.548" fill="none" stroke="#b9d2db" stroke-linecap="round" stroke-miterlimit="10" stroke-width="3" class="colorStrokeb9d4db svgStroke"></line><circle cx="453.544" cy="73.549" r="12.96" fill="#87ddfd" class="colorb9d4db svgShape"></circle><circle cx="444.467" cy="107.823" r="6.72" fill="#87ddfd" class="colorb9d4db svgShape"></circle><circle cx="417.514" cy="72.453" r="9.6" fill="#87ddfd" class="colorb9d4db svgShape"></circle><circle cx="519.523" cy="434.484" r="12.96" fill="#87ddfd" class="colorb9d4db svgShape"></circle><circle cx="485.063" cy="442.828" r="6.72" fill="#87ddfd" class="colorb9d4db svgShape"></circle><circle cx="503.326" cy="402.282" r="9.6" fill="#87ddfd" class="colorb9d4db svgShape"></circle><circle cx="194.442" cy="191.917" r="15.42" fill="#87ddfd" class="colorb9d4db svgShape"></circle><circle cx="164.977" cy="180.934" r="8.032" fill="#87ddfd" class="colorb9d4db svgShape"></circle><circle cx="172.354" cy="153.631" r="4.633" fill="#87ddfd" class="colorb9d4db svgShape"></circle><circle cx="198.002" cy="156.909" r="11.107" fill="#87ddfd" class="colorb9d4db svgShape"></circle></svg>